{"asset":{"version":"2.0","generator":"THREE.GLTFExporter r175"},"scenes":[{"name":"AuxScene","nodes":[8]}],"scene":0,"nodes":[{"matrix":[1,0,0,0,0,1,0,0,0,0,1,0,-28.10839980163574,0,0,1],"mesh":0},{"matrix":[1,0,0,0,0,1,0,0,0,0,1,0,-19.564300129699706,0,0,1],"mesh":1},{"matrix":[1,0,0,0,0,1,0,0,0,0,1,0,-13.80419990081787,0,0,1],"mesh":2},{"matrix":[1,0,0,0,0,1,0,0,0,0,1,0,-8.044099671936035,0,0,1],"mesh":3},{"matrix":[1,0,0,0,0,1,0,0,0,0,1,0,-0.8919997215270996,0,0,1],"mesh":4},{"matrix":[1,0,0,0,0,1,0,0,0,0,1,0,6.260100228881836,0,0,1],"mesh":5},{"matrix":[1,0,0,0,0,1,0,0,0,0,1,0,13.412200179290771,0,0,1],"mesh":6},{"matrix":[1,0,0,0,0,1,0,0,0,0,1,0,20.564300129699706,0,0,1],"mesh":7},{"children":[0,1,2,3,4,5,6,7]}],"bufferViews":[{"buffer":0,"byteOffset":0,"byteLength":13968,"target":34962,"byteStride":12},{"buffer":0,"byteOffset":13968,"byteLength":9312,"target":34962,"byteStride":8},{"buffer":0,"byteOffset":23280,"byteLength":13968,"target":34962,"byteStride":12},{"buffer":0,"byteOffset":37248,"byteLength":8496,"target":34962,"byteStride":12},{"buffer":0,"byteOffset":45744,"byteLength":5664,"target":34962,"byteStride":8},{"buffer":0,"byteOffset":51408,"byteLength":8496,"target":34962,"byteStride":12},{"buffer":0,"byteOffset":59904,"byteLength":5616,"target":34962,"byteStride":12},{"buffer":0,"byteOffset":65520,"byteLength":3744,"target":34962,"byteStride":8},{"buffer":0,"byteOffset":69264,"byteLength":5616,"target":34962,"byteStride":12},{"buffer":0,"byteOffset":74880,"byteLength":11520,"target":34962,"byteStride":12},{"buffer":0,"byteOffset":86400,"byteLength":7680,"target":34962,"byteStride":8},{"buffer":0,"byteOffset":94080,"byteLength":11520,"target":34962,"byteStride":12},{"buffer":0,"byteOffset":105600,"byteLength":14256,"target":34962,"byteStride":12},{"buffer":0,"byteOffset":119856,"byteLength":9504,"target":34962,"byteStride":8},{"buffer":0,"byteOffset":129360,"byteLength":14256,"target":34962,"byteStride":12},{"buffer":0,"byteOffset":143616,"byteLength":14256,"target":34962,"byteStride":12},{"buffer":0,"byteOffset":157872,"byteLength":9504,"target":34962,"byteStride":8},{"buffer":0,"byteOffset":167376,"byteLength":14256,"target":34962,"byteStride":12},{"buffer":0,"byteOffset":181632,"byteLength":11520,"target":34962,"byteStride":12},{"buffer":0,"byteOffset":193152,"byteLength":7680,"target":34962,"byteStride":8},{"buffer":0,"byteOffset":200832,"byteLength":11520,"target":34962,"byteStride":12},{"buffer":0,"byteOffset":212352,"byteLength":13680,"target":34962,"byteStride":12},{"buffer":0,"byteOffset":226032,"byteLength":9120,"target":34962,"byteStride":8},{"buffer":0,"byteOffset":235152,"byteLength":13680,"target":34962,"byteStride":12}],"buffers":[{"byteLength":248832,"uri":"data:application/octet-stream;base64,"}],"accessors":[{"bufferView":0,"componentType":5126,"count":1164,"max":[8.63599967956543,7.24399995803833,3.5],"min":[1.0920000076293945,-0.30000001192092896,-0.5],"type":"VEC3"},{"bufferView":1,"componentType":5126,"count":1164,"max":[8.63599967956543,6.943999767303467],"min":[-0.30000001192092896,-2.5],"type":"VEC2"},{"bufferView":2,"componentType":5126,"count":1164,"max":[1,1,1],"min":[-1,-1,-1],"type":"VEC3"},{"bufferView":3,"componentType":5126,"count":708,"max":[5.8520002365112305,7.24399995803833,3.5],"min":[1.0920000076293945,-0.30000001192092896,-0.5],"type":"VEC3"},{"bufferView":4,"componentType":5126,"count":708,"max":[7.24399995803833,6.943999767303467],"min":[-0.30000001192092896,-2.5],"type":"VEC2"},{"bufferView":5,"componentType":5126,"count":708,"max":[1,1,1],"min":[-1,-1,-1],"type":"VEC3"},{"bufferView":6,"componentType":5126,"count":468,"max":[5.8520002365112305,7.24399995803833,3.5],"min":[1.0920000076293945,-0.30000001192092896,-0.5],"type":"VEC3"},{"bufferView":7,"componentType":5126,"count":468,"max":[7.24399995803833,6.943999767303467],"min":[-0.30000001192092896,-2.5],"type":"VEC2"},{"bufferView":8,"componentType":5126,"count":468,"max":[1,1,1],"min":[-1,-1,-1],"type":"VEC3"},{"bufferView":9,"componentType":5126,"count":960,"max":[7.24399995803833,7.24399995803833,3.5],"min":[1.0920000076293945,-0.30000001192092896,-0.5],"type":"VEC3"},{"bufferView":10,"componentType":5126,"count":960,"max":[7.24399995803833,6.943999767303467],"min":[-0.30000001192092896,-2.5],"type":"VEC2"},{"bufferView":11,"componentType":5126,"count":960,"max":[1,1,1],"min":[-1,-1,-1],"type":"VEC3"},{"bufferView":12,"componentType":5126,"count":1188,"max":[7.24399995803833,7.24399995803833,3.5],"min":[1.0920000076293945,-0.30000001192092896,-0.5],"type":"VEC3"},{"bufferView":13,"componentType":5126,"count":1188,"max":[7.24399995803833,6.943999767303467],"min":[-0.30000001192092896,-2.5],"type":"VEC2"},{"bufferView":14,"componentType":5126,"count":1188,"max":[1,1,1],"min":[-1,-1,-1],"type":"VEC3"},{"bufferView":15,"componentType":5126,"count":1188,"max":[7.24399995803833,7.24399995803833,3.5],"min":[1.0920000076293945,-0.30000001192092896,-0.5],"type":"VEC3"},{"bufferView":16,"componentType":5126,"count":1188,"max":[7.24399995803833,6.943999767303467],"min":[-0.30000001192092896,-2.5],"type":"VEC2"},{"bufferView":17,"componentType":5126,"count":1188,"max":[1,1,1],"min":[-1,-1,-1],"type":"VEC3"},{"bufferView":18,"componentType":5126,"count":960,"max":[7.24399995803833,7.24399995803833,3.5],"min":[1.0920000076293945,-0.30000001192092896,-0.5],"type":"VEC3"},{"bufferView":19,"componentType":5126,"count":960,"max":[7.24399995803833,6.943999767303467],"min":[-0.30000001192092896,-2.5],"type":"VEC2"},{"bufferView":20,"componentType":5126,"count":960,"max":[1,1,1],"min":[-1,-1,-1],"type":"VEC3"},{"bufferView":21,"componentType":5126,"count":1140,"max":[8.63599967956543,7.24399995803833,3.5],"min":[1.0920000076293945,-0.30000001192092896,-0.5],"type":"VEC3"},{"bufferView":22,"componentType":5126,"count":1140,"max":[8.63599967956543,6.943999767303467],"min":[-0.30000001192092896,-2.5],"type":"VEC2"},{"bufferView":23,"componentType":5126,"count":1140,"max":[1,1,1],"min":[-1,-1,-1],"type":"VEC3"}],"materials":[{"pbrMetallicRoughness":{"metallicFactor":0,"roughnessFactor":0.35},"doubleSided":true,"extensions":{"KHR_materials_transmission":{"transmissionFactor":1},"KHR_materials_volume":{"thicknessFactor":0,"attenuationColor":[1,1,1]}}},{"pbrMetallicRoughness":{"metallicFactor":0,"roughnessFactor":0.35},"doubleSided":true,"extensions":{"KHR_materials_transmission":{"transmissionFactor":1},"KHR_materials_volume":{"thicknessFactor":0,"attenuationColor":[1,1,1]}}},{"pbrMetallicRoughness":{"metallicFactor":0,"roughnessFactor":0.35},"doubleSided":true,"extensions":{"KHR_materials_transmission":{"transmissionFactor":1},"KHR_materials_volume":{"thicknessFactor":0,"attenuationColor":[1,1,1]}}},{"pbrMetallicRoughness":{"metallicFactor":0,"roughnessFactor":0.35},"doubleSided":true,"extensions":{"KHR_materials_transmission":{"transmissionFactor":1},"KHR_materials_volume":{"thicknessFactor":0,"attenuationColor":[1,1,1]}}},{"pbrMetallicRoughness":{"metallicFactor":0,"roughnessFactor":0.35},"doubleSided":true,"extensions":{"KHR_materials_transmission":{"transmissionFactor":1},"KHR_materials_volume":{"thicknessFactor":0,"attenuationColor":[1,1,1]}}},{"pbrMetallicRoughness":{"metallicFactor":0,"roughnessFactor":0.35},"doubleSided":true,"extensions":{"KHR_materials_transmission":{"transmissionFactor":1},"KHR_materials_volume":{"thicknessFactor":0,"attenuationColor":[1,1,1]}}},{"pbrMetallicRoughness":{"metallicFactor":0,"roughnessFactor":0.35},"doubleSided":true,"extensions":{"KHR_materials_transmission":{"transmissionFactor":1},"KHR_materials_volume":{"thicknessFactor":0,"attenuationColor":[1,1,1]}}},{"pbrMetallicRoughness":{"metallicFactor":0,"roughnessFactor":0.35},"doubleSided":true,"extensions":{"KHR_materials_transmission":{"transmissionFactor":1},"KHR_materials_volume":{"thicknessFactor":0,"attenuationColor":[1,1,1]}}}],"meshes":[{"primitives":[{"mode":4,"attributes":{"POSITION":0,"TEXCOORD_0":1,"NORMAL":2},"material":0}]},{"primitives":[{"mode":4,"attributes":{"POSITION":3,"TEXCOORD_0":4,"NORMAL":5},"material":1}]},{"primitives":[{"mode":4,"attributes":{"POSITION":6,"TEXCOORD_0":7,"NORMAL":8},"material":2}]},{"primitives":[{"mode":4,"attributes":{"POSITION":9,"TEXCOORD_0":10,"NORMAL":11},"material":3}]},{"primitives":[{"mode":4,"attributes":{"POSITION":12,"TEXCOORD_0":13,"NORMAL":14},"material":4}]},{"primitives":[{"mode":4,"attributes":{"POSITION":15,"TEXCOORD_0":16,"NORMAL":17},"material":5}]},{"primitives":[{"mode":4,"attributes":{"POSITION":18,"TEXCOORD_0":19,"NORMAL":20},"material":6}]},{"primitives":[{"mode":4,"attributes":{"POSITION":21,"TEXCOORD_0":22,"NORMAL":23},"material":7}]}],"extensionsUsed":["KHR_materials_transmission","KHR_materials_volume"]}